<?xml version="1.0" standalone="no"?>
<!DOCTYPE svg PUBLIC "-//W3C//DTD SVG 20010904//EN"
 "http://www.w3.org/TR/2001/REC-SVG-20010904/DTD/svg10.dtd">
<svg version="1.0" xmlns="http://www.w3.org/2000/svg"
 width="223.000000pt" height="226.000000pt" viewBox="0 0 223.000000 226.000000"
 preserveAspectRatio="xMidYMid meet">

<g transform="translate(0.000000,226.000000) scale(0.100000,-0.100000)"
fill="#000000" stroke="none">
<path d="M982 1445 c-46 -20 -62 -65 -62 -169 0 -72 2 -84 15 -80 12 5 15 24
15 85 0 133 18 149 170 149 90 0 101 -2 127 -24 27 -23 28 -29 31 -123 3 -112
-14 -165 -56 -171 -13 -2 -21 -9 -19 -15 7 -23 36 -18 68 11 33 30 33 31 37
133 7 189 -20 219 -193 219 -64 -1 -112 -6 -133 -15z"/>
<path d="M1202 1373 c2 -10 10 -18 18 -18 22 0 18 29 -3 33 -14 3 -18 -1 -15
-15z"/>
<path d="M1046 1333 c-22 -22 -26 -34 -24 -67 2 -27 8 -42 19 -44 12 -2 14 5
11 33 -5 46 19 75 63 75 87 0 84 -128 -2 -131 -23 -1 -21 -3 12 -10 36 -9 42
-8 63 16 30 36 29 85 -4 124 -35 42 -98 44 -138 4z"/>
<path d="M1108 1173 c7 -3 16 -2 19 1 4 3 -2 6 -13 5 -11 0 -14 -3 -6 -6z"/>
<path d="M1041 425 c0 -16 3 -25 7 -19 4 6 14 14 22 17 12 4 12 6 -2 6 -9 1
-19 7 -21 14 -3 6 -6 -1 -6 -18z"/>
<path d="M1111 425 c0 -16 3 -24 6 -17 2 6 11 12 19 12 9 0 12 -4 9 -10 -3 -5
-1 -10 4 -10 18 0 12 20 -6 27 -10 4 -21 11 -25 17 -4 6 -7 -2 -7 -19z"/>
<path d="M1180 431 c0 -11 3 -22 8 -24 4 -3 7 6 7 19 0 13 -3 24 -7 24 -5 0
-8 -9 -8 -19z"/>
<path d="M1258 438 c-7 -17 1 -38 14 -38 7 0 7 4 -1 13 -8 10 -7 17 1 25 8 8
9 12 1 12 -6 0 -13 -6 -15 -12z"/>
<path d="M1295 425 c0 -14 3 -25 8 -25 4 0 7 11 7 25 0 14 -3 25 -7 25 -5 0
-8 -11 -8 -25z"/>
<path d="M1341 427 c2 -1 13 -9 24 -17 19 -14 19 -14 6 3 -7 9 -18 17 -24 17
-6 0 -8 -1 -6 -3z"/>
</g>
</svg>
