<?xml version="1.0" standalone="no"?>
<!DOCTYPE svg PUBLIC "-//W3C//DTD SVG 20010904//EN"
 "http://www.w3.org/TR/2001/REC-SVG-20010904/DTD/svg10.dtd">
<svg version="1.0" xmlns="http://www.w3.org/2000/svg"
 width="224.000000pt" height="224.000000pt" viewBox="0 0 224.000000 224.000000"
 preserveAspectRatio="xMidYMid meet">

<g transform="translate(0.000000,224.000000) scale(0.100000,-0.100000)"
fill="#000000" stroke="none">
<path d="M428 2145 c-163 -40 -288 -160 -334 -320 -16 -53 -18 -124 -20 -625
-2 -312 1 -554 6 -540 5 17 8 19 9 8 1 -22 8 -23 27 -3 9 8 27 15 41 15 14 0
37 8 51 18 71 48 119 55 115 17 -2 -13 3 -9 12 10 11 24 14 99 15 385 0 266 4
372 14 422 38 178 141 287 317 335 56 16 112 18 439 18 327 0 383 -2 439 -18
164 -45 263 -144 309 -310 15 -54 17 -113 17 -442 0 -420 -4 -453 -66 -561
-64 -113 -215 -201 -349 -205 l-35 -1 37 -11 c36 -11 97 -76 98 -103 0 -6 7
-17 15 -24 8 -7 15 -21 15 -31 0 -11 7 -19 15 -19 17 0 20 -16 5 -25 -37 -23
58 -61 129 -51 184 24 325 136 383 303 l23 68 0 655 c0 512 -3 666 -13 705
-40 148 -144 262 -291 318 -55 21 -69 22 -711 24 -535 1 -666 -1 -712 -12z"/>
<path d="M701 1724 c-61 -16 -107 -48 -147 -99 -51 -67 -57 -106 -61 -420 -2
-159 0 -330 4 -380 l8 -90 16 34 c14 28 18 31 23 15 4 -14 15 -19 40 -19 19 0
37 3 40 5 5 5 135 -5 166 -12 60 -15 161 -56 170 -69 5 -7 40 -17 80 -22 8 -2
31 -13 50 -25 19 -12 42 -22 51 -22 9 0 31 -13 49 -30 21 -19 43 -30 64 -31
30 -1 30 -1 6 -9 -24 -8 -23 -8 7 -9 23 -1 31 -5 27 -15 -7 -19 44 -29 138
-28 136 3 235 58 279 157 30 69 42 245 37 550 -6 309 -16 365 -75 435 -79 92
-127 100 -566 99 -276 0 -364 -3 -406 -15z m890 -133 c48 -48 38 -116 -22
-147 -77 -40 -153 35 -125 124 18 54 102 68 147 23z m-299 -119 c273 -134 298
-524 43 -687 -99 -64 -226 -82 -336 -48 -30 9 -60 15 -68 14 -7 -1 -10 2 -6 8
4 7 0 8 -11 4 -11 -4 -13 -8 -6 -11 14 -4 6 -22 -9 -22 -6 0 -7 5 -4 10 3 6 0
10 -7 10 -8 0 -6 5 5 11 15 9 10 17 -41 64 -43 39 -68 74 -93 127 -31 67 -34
81 -33 163 1 118 26 184 102 266 90 98 167 130 303 126 84 -2 103 -6 161 -35z"/>
<path d="M1015 1347 c-56 -27 -110 -82 -132 -136 -21 -49 -20 -149 2 -192 53
-104 128 -153 235 -152 220 1 329 250 185 421 -65 77 -197 104 -290 59z"/>
</g>
</svg>
